<svg width="629" height="632" viewBox="0 0 629 632" fill="none" xmlns="http://www.w3.org/2000/svg">
<path d="M297.647 0.947846C368.555 -5.72567 456.807 23.4649 510.986 68.8283C582.783 128.939 619.16 200.195 629 291.89L536.049 291.908C526.504 196.842 458.087 120.607 365.91 97.886L321.986 17.8974L314.415 4.37442C296.978 35.2025 280.45 66.6687 263.798 97.9365C185.309 113.861 117.928 181.655 98.6698 258.58C95.8683 269.773 94.0049 280.538 92.1621 291.891L0 292C3.71549 226.537 35.0729 155.316 78.543 106.751C136.75 41.7169 211.013 6.21592 297.647 0.947846Z" fill="#F4F6F7" style="fill:#F4F6F7;fill:color(display-p3 0.9569 0.9647 0.9686);fill-opacity:1;"/>
<path d="M313.944 338C316.874 340.667 333.912 369.674 337.136 374.958L386.496 455.667C395.72 470.737 406.76 489.929 416.793 503.909C454.194 518.576 492.279 532.987 530 546.785C465.804 602.207 402.033 629.865 316.225 632C229.462 631.888 162.822 602.259 98 546.648C134.369 533.39 176.293 518.613 211.735 503.85C222.786 488.063 234.003 468.149 244.315 451.637C267.771 414.066 290.23 375.374 313.944 338Z" fill="#F4F6F7" style="fill:#F4F6F7;fill:color(display-p3 0.9569 0.9647 0.9686);fill-opacity:1;"/>
<path d="M289.301 82C290.587 87.9541 288.821 102.9 291.687 114.222C301.082 151.329 331.303 166.309 352.399 194.587C372.089 220.981 378.239 249.661 373.288 281.814C407.708 248.654 411.393 211.165 397.998 167.359L402.42 170.004C466.062 208.81 495.802 286.376 477.823 358.053C472.186 380.521 464.31 394.568 452.355 414L404.144 333.168L329.792 333.224L224.27 333.153L176.255 413.832C117.932 331.442 144.209 218.687 230.331 167.443C220.555 202.717 219.491 231.993 239.873 264.142C242.464 268.229 249.107 277.716 253.772 278.882L253.81 280.054C253.767 279.48 253.43 274.979 253.43 274.979C264.439 260.471 274.659 242.113 277.931 224.21C280.691 209.103 279.666 193.722 276.183 179.073C266.857 139.862 267.724 116.778 289.301 82Z" fill="#F4F6F7" style="fill:#F4F6F7;fill:color(display-p3 0.9569 0.9647 0.9686);fill-opacity:1;"/>
<path d="M0 339L91.9847 339.165C98.2147 389.297 113.168 423.695 145 462.641L115.203 513.966C108.94 524.722 103.382 535.029 97.5643 546C41.1852 492.2 4.09243 417.472 0 339Z" fill="#F4F6F7" style="fill:#F4F6F7;fill:color(display-p3 0.9569 0.9647 0.9686);fill-opacity:1;"/>
<path d="M536.001 339L629 339.015C622.037 411.373 599.645 467.093 552.686 523.072C545.777 531.287 538.601 538.398 531.071 546C522.146 526.132 494.964 482.189 483 462.394C513.661 431.586 531.728 381.854 536.001 339Z" fill="#F4F6F7" style="fill:#F4F6F7;fill:color(display-p3 0.9569 0.9647 0.9686);fill-opacity:1;"/>
</svg>
