<svg width="625" height="170" viewBox="0 0 625 170" fill="none" xmlns="http://www.w3.org/2000/svg">
<path d="M79.4986 0.254959C98.4376 -1.54013 122.009 6.31175 136.48 18.5139C155.656 34.6829 165.372 53.85 168 78.5146L143.174 78.5196C140.624 52.9479 122.351 32.4418 97.7312 26.3301L85.9995 4.81416L83.9773 1.17666C79.3199 9.46902 74.9057 17.933 70.458 26.3437C49.4943 30.627 31.4973 48.8629 26.3538 69.5547C25.6055 72.5655 25.1078 75.461 24.6156 78.5151L0 78.5443C0.992373 60.9357 9.36763 41.7782 20.9781 28.7147C36.5246 11.2213 56.3596 1.672 79.4986 0.254959Z" fill="#F4F6F7" style="fill:#F4F6F7;fill:color(display-p3 0.9569 0.9647 0.9686);fill-opacity:1;"/>
<path d="M83.8515 90.9177C84.6341 91.635 89.1848 99.4376 90.0459 100.859L103.229 122.569C105.693 126.622 108.642 131.785 111.321 135.545C121.311 139.49 131.483 143.367 141.558 147.078C124.412 161.986 107.379 169.426 84.4607 170C61.2871 169.97 43.4883 162 26.1749 147.042C35.8886 143.475 47.0861 139.5 56.5524 135.529C59.504 131.283 62.5 125.926 65.2541 121.485C71.519 111.379 77.5176 100.971 83.8515 90.9177Z" fill="#F4F6F7" style="fill:#F4F6F7;fill:color(display-p3 0.9569 0.9647 0.9686);fill-opacity:1;"/>
<path d="M77.2696 22.057C77.6132 23.6585 77.1413 27.6788 77.9068 30.7242C80.4163 40.7056 88.4879 44.7349 94.1225 52.3413C99.3816 59.4412 101.024 67.1556 99.7017 75.8043C108.895 66.8848 109.879 56.8008 106.302 45.0174L107.483 45.729C124.481 56.1672 132.424 77.0315 127.622 96.3118C126.116 102.355 124.013 106.134 120.82 111.361L107.943 89.618L88.0844 89.6331L59.9003 89.614L47.076 111.316C31.4986 89.1537 38.517 58.8241 61.5194 45.04C58.9081 54.5284 58.6239 62.4031 64.0677 71.0508C64.7599 72.1503 66.5342 74.7022 67.7802 75.0158L67.7902 75.3309C67.7787 75.1766 67.6888 73.966 67.6888 73.966C70.6292 70.0633 73.3589 65.1254 74.2328 60.3096C74.9699 56.246 74.6962 52.1087 73.7659 48.1683C71.2749 37.621 71.5067 31.4117 77.2696 22.057Z" fill="#F4F6F7" style="fill:#F4F6F7;fill:color(display-p3 0.9569 0.9647 0.9686);fill-opacity:1;"/>
<path d="M0 91.1867L24.5683 91.2311C26.2322 104.716 30.2261 113.969 38.7281 124.444L30.7697 138.25C29.0967 141.143 27.6125 143.916 26.0585 146.867C11.0002 132.396 1.09305 112.295 0 91.1867Z" fill="#F4F6F7" style="fill:#F4F6F7;fill:color(display-p3 0.9569 0.9647 0.9686);fill-opacity:1;"/>
<path d="M143.161 91.1867L168 91.1908C166.14 110.654 160.16 125.642 147.617 140.7C145.772 142.91 143.855 144.822 141.844 146.867C139.46 141.523 132.2 129.703 129.005 124.378C137.194 116.091 142.019 102.714 143.161 91.1867Z" fill="#F4F6F7" style="fill:#F4F6F7;fill:color(display-p3 0.9569 0.9647 0.9686);fill-opacity:1;"/>
<path d="M293.48 92H283.88V72.8H230.216V63.2H283.88V34.4H249.416C245.064 34.4 241.064 35.488 237.416 37.664C233.768 39.776 230.856 42.656 228.68 46.304C226.568 49.952 225.512 53.984 225.512 58.4V92H215.912V58.4C215.912 53.792 216.776 49.472 218.504 45.44C220.232 41.344 222.632 37.76 225.704 34.688C228.776 31.552 232.328 29.12 236.36 27.392C240.456 25.664 244.808 24.8 249.416 24.8H293.48V92Z" fill="white" style="fill:white;fill-opacity:1;"/>
<path d="M375.547 34.4L313.819 82.4H375.547V92H297.883V82.4L359.995 34.4H297.883V24.8H375.547V34.4Z" fill="white" style="fill:white;fill-opacity:1;"/>
<path d="M457.397 92H444.437L424.277 72.8H394.805V63.296H433.397C436.085 63.296 438.517 62.656 440.693 61.376C442.869 60.032 444.597 58.272 445.877 56.096C447.157 53.856 447.797 51.424 447.797 48.8C447.797 46.112 447.157 43.68 445.877 41.504C444.597 39.328 442.869 37.6 440.693 36.32C438.517 35.04 436.085 34.4 433.397 34.4H389.429V92H379.829V24.8H433.397C437.813 24.8 441.845 25.888 445.493 28.064C449.141 30.176 452.021 33.056 454.133 36.704C456.309 40.352 457.397 44.384 457.397 48.8C457.397 52.768 456.501 56.448 454.709 59.84C452.981 63.232 450.581 66.048 447.509 68.288C444.501 70.464 441.077 71.872 437.237 72.512L457.397 92Z" fill="white" style="fill:white;fill-opacity:1;"/>
<path d="M538.378 92H528.778V72.8H475.113V63.2H528.778V34.4H494.314C489.962 34.4 485.962 35.488 482.314 37.664C478.665 39.776 475.754 42.656 473.578 46.304C471.466 49.952 470.41 53.984 470.41 58.4V92H460.81V58.4C460.81 53.792 461.674 49.472 463.402 45.44C465.13 41.344 467.53 37.76 470.602 34.688C473.673 31.552 477.225 29.12 481.258 27.392C485.354 25.664 489.706 24.8 494.314 24.8H538.378V92Z" fill="white" style="fill:white;fill-opacity:1;"/>
<path d="M624.381 92H611.421L591.261 72.8H561.789V63.296H600.381C603.069 63.296 605.501 62.656 607.677 61.376C609.853 60.032 611.581 58.272 612.861 56.096C614.141 53.856 614.781 51.424 614.781 48.8C614.781 46.112 614.141 43.68 612.861 41.504C611.581 39.328 609.853 37.6 607.677 36.32C605.501 35.04 603.069 34.4 600.381 34.4H556.413V92H546.813V24.8H600.381C604.797 24.8 608.829 25.888 612.477 28.064C616.125 30.176 619.005 33.056 621.117 36.704C623.293 40.352 624.381 44.384 624.381 48.8C624.381 52.768 623.485 56.448 621.693 59.84C619.965 63.232 617.565 66.048 614.493 68.288C611.485 70.464 608.061 71.872 604.221 72.512L624.381 92Z" fill="white" style="fill:white;fill-opacity:1;"/>
<path d="M241.36 136H216.36V160H212.36V132H241.36V136ZM237.92 148H218.36V144H237.92V148Z" fill="white" style="fill:white;fill-opacity:1;"/>
<path d="M256.207 160H252.207V132H256.207V160Z" fill="white" style="fill:white;fill-opacity:1;"/>
<path d="M302.03 160H296.63L288.23 152H275.95V148.04H292.03C293.15 148.04 294.163 147.773 295.07 147.24C295.977 146.68 296.697 145.947 297.23 145.04C297.763 144.107 298.03 143.093 298.03 142C298.03 140.88 297.763 139.867 297.23 138.96C296.697 138.053 295.977 137.333 295.07 136.8C294.163 136.267 293.15 136 292.03 136H273.71V160H269.71V132H292.03C293.87 132 295.55 132.453 297.07 133.36C298.59 134.24 299.79 135.44 300.67 136.96C301.577 138.48 302.03 140.16 302.03 142C302.03 143.653 301.657 145.187 300.91 146.6C300.19 148.013 299.19 149.187 297.91 150.12C296.657 151.027 295.23 151.613 293.63 151.88L302.03 160Z" fill="white" style="fill:white;fill-opacity:1;"/>
<path d="M342.892 160H313.932V132H342.892V136H317.932V156H342.892V160ZM339.492 148H319.932V144H339.492V148Z" fill="white" style="fill:white;fill-opacity:1;"/>
<path d="M407.358 152C407.358 153.467 406.998 154.813 406.278 156.04C405.558 157.24 404.598 158.2 403.398 158.92C402.198 159.64 400.851 160 399.358 160H375.038V156H399.358C400.478 156 401.425 155.613 402.198 154.84C402.971 154.04 403.358 153.093 403.358 152C403.358 150.907 402.971 149.973 402.198 149.2C401.425 148.4 400.478 148 399.358 148H383.038C381.571 148 380.225 147.64 378.998 146.92C377.798 146.2 376.838 145.24 376.118 144.04C375.398 142.813 375.038 141.467 375.038 140C375.038 138.533 375.398 137.2 376.118 136C376.838 134.773 377.798 133.8 378.998 133.08C380.225 132.36 381.571 132 383.038 132H405.358V136H383.038C381.945 136 380.998 136.4 380.198 137.2C379.425 137.973 379.038 138.907 379.038 140C379.038 141.093 379.425 142.04 380.198 142.84C380.998 143.613 381.945 144 383.038 144H399.358C400.851 144 402.198 144.36 403.398 145.08C404.598 145.8 405.558 146.773 406.278 148C406.998 149.2 407.358 150.533 407.358 152Z" fill="white" style="fill:white;fill-opacity:1;"/>
<path d="M450.104 152C450.104 153.467 449.651 154.813 448.744 156.04C447.864 157.24 446.664 158.2 445.144 158.92C443.624 159.64 441.944 160 440.104 160H417.744V156H440.104C441.197 156 442.197 155.827 443.104 155.48C444.011 155.107 444.731 154.613 445.264 154C445.824 153.387 446.104 152.72 446.104 152V150H427.744C425.904 150 424.224 149.547 422.704 148.64C421.211 147.733 420.011 146.533 419.104 145.04C418.197 143.52 417.744 141.84 417.744 140V132H421.744V140C421.744 141.093 422.011 142.107 422.544 143.04C423.077 143.947 423.797 144.667 424.704 145.2C425.637 145.733 426.651 146 427.744 146H446.104V132H450.104V152Z" fill="white" style="fill:white;fill-opacity:1;"/>
<path d="M494.318 152C494.318 153.467 493.958 154.813 493.238 156.04C492.518 157.24 491.558 158.2 490.358 158.92C489.158 159.64 487.811 160 486.318 160H461.997V156H486.318C487.438 156 488.384 155.613 489.158 154.84C489.931 154.04 490.318 153.093 490.318 152C490.318 150.907 489.931 149.973 489.158 149.2C488.384 148.4 487.438 148 486.318 148H469.997C468.531 148 467.184 147.64 465.958 146.92C464.758 146.2 463.798 145.24 463.078 144.04C462.358 142.813 461.997 141.467 461.997 140C461.997 138.533 462.358 137.2 463.078 136C463.798 134.773 464.758 133.8 465.958 133.08C467.184 132.36 468.531 132 469.997 132H492.318V136H469.997C468.904 136 467.957 136.4 467.158 137.2C466.384 137.973 465.997 138.907 465.997 140C465.997 141.093 466.384 142.04 467.158 142.84C467.957 143.613 468.904 144 469.997 144H486.318C487.811 144 489.158 144.36 490.358 145.08C491.558 145.8 492.518 146.773 493.238 148C493.958 149.2 494.318 150.533 494.318 152Z" fill="white" style="fill:white;fill-opacity:1;"/>
<path d="M520.983 160H516.983V136H502.823V132H535.143V136H520.983V160Z" fill="white" style="fill:white;fill-opacity:1;"/>
<path d="M574.668 160H545.708V132H574.668V136H549.708V156H574.668V160ZM571.268 148H551.708V144H571.268V148Z" fill="white" style="fill:white;fill-opacity:1;"/>
<path d="M606.575 160H602.575V146C602.575 144.16 602.121 142.48 601.215 140.96C600.335 139.44 599.135 138.24 597.615 137.36C596.095 136.453 594.415 136 592.575 136H590.415V160H586.415V132H592.575C595.108 132 597.428 132.627 599.535 133.88C601.668 135.133 603.348 136.773 604.575 138.8C605.801 136.773 607.468 135.133 609.575 133.88C611.708 132.627 614.041 132 616.575 132H622.735V160H618.735V136H616.575C614.735 136 613.055 136.453 611.535 137.36C610.041 138.24 608.841 139.44 607.935 140.96C607.028 142.48 606.575 144.16 606.575 146V160Z" fill="white" style="fill:white;fill-opacity:1;"/>
</svg>
