<svg width="107" height="30" viewBox="0 0 107 30" fill="none" xmlns="http://www.w3.org/2000/svg">
<path d="M13.6237 0.0449927C16.8692 -0.271788 20.9086 1.11384 23.3885 3.26717C26.6747 6.1205 28.3397 9.50294 28.7901 13.8555L24.5356 13.8564C24.0988 9.34375 20.9672 5.72502 16.7482 4.64649L14.7377 0.849558L14.3912 0.207647C13.593 1.671 12.8366 3.16465 12.0744 4.64889C8.48183 5.40477 5.39769 8.62286 4.51624 12.2744C4.38801 12.8057 4.30272 13.3167 4.21838 13.8556L0 13.8608C0.170063 10.7534 1.60533 7.37262 3.59501 5.06729C6.25921 1.98023 9.65833 0.29506 13.6237 0.0449927Z" fill="#26364A" style="fill:#26364A;fill:color(display-p3 0.1490 0.2118 0.2902);fill-opacity:1;"/>
<path d="M14.3696 16.0443C14.5037 16.1709 15.2836 17.5478 15.4311 17.7987L17.6904 21.6298C18.1126 22.3451 18.6179 23.2561 19.0771 23.9197C20.789 24.616 22.5322 25.3 24.2588 25.955C21.3205 28.5858 18.4016 29.8987 14.474 30C10.5028 29.9947 7.45259 28.5883 4.48558 25.9485C6.15022 25.3192 8.06913 24.6177 9.69138 23.9169C10.1972 23.1675 10.7106 22.2223 11.1826 21.4384C12.2562 19.655 13.2842 17.8184 14.3696 16.0443Z" fill="#26364A" style="fill:#26364A;fill:color(display-p3 0.1490 0.2118 0.2902);fill-opacity:1;"/>
<path d="M13.2417 3.89241C13.3006 4.17504 13.2197 4.8845 13.3509 5.42192C13.7809 7.18334 15.1641 7.8944 16.1298 9.23671C17.031 10.4896 17.3125 11.851 17.0859 13.3772C18.6613 11.8032 18.83 10.0237 18.2169 7.94424L18.4193 8.06982C21.3323 9.91185 22.6935 13.5938 21.8706 16.9962C21.6125 18.0627 21.2521 18.7295 20.7049 19.6519L18.4982 15.8149L15.095 15.8176L10.2651 15.8142L8.06741 19.6439C5.3979 15.733 6.60065 10.3807 10.5426 7.94823C10.0951 9.62266 10.0464 11.0123 10.9793 12.5384C11.0979 12.7324 11.402 13.1827 11.6155 13.2381L11.6172 13.2937C11.6152 13.2665 11.5998 13.0528 11.5998 13.0528C12.1037 12.3641 12.5715 11.4927 12.7213 10.6429C12.8476 9.92577 12.8007 9.19565 12.6412 8.50028C12.2144 6.639 12.2541 5.54324 13.2417 3.89241Z" fill="#26364A" style="fill:#26364A;fill:color(display-p3 0.1490 0.2118 0.2902);fill-opacity:1;"/>
<path d="M0 16.0918L4.21026 16.0996C4.49541 18.4793 5.17985 20.1121 6.63683 21.9608L5.27299 24.3971C4.9863 24.9077 4.73194 25.3969 4.46564 25.9177C1.8851 23.3639 0.187316 19.8167 0 16.0918Z" fill="#26364A" style="fill:#26364A;fill:color(display-p3 0.1490 0.2118 0.2902);fill-opacity:1;"/>
<path d="M24.5334 16.0918L28.7901 16.0925C28.4714 19.5272 27.4465 22.1721 25.2971 24.8294C24.9809 25.2193 24.6524 25.5569 24.3078 25.9177C23.8993 24.9746 22.6551 22.8887 22.1075 21.9491C23.5109 20.4867 24.3378 18.126 24.5334 16.0918Z" fill="#26364A" style="fill:#26364A;fill:color(display-p3 0.1490 0.2118 0.2902);fill-opacity:1;"/>
<path d="M50.2936 16.2353H48.6485V12.8471H39.4521V11.1529H48.6485V6.07059H42.7424C41.9966 6.07059 41.3111 6.26259 40.6859 6.64659C40.0608 7.01929 39.5617 7.52753 39.1888 8.17129C38.8269 8.81506 38.6459 9.52659 38.6459 10.3059V16.2353H37.0008V10.3059C37.0008 9.49271 37.1489 8.73035 37.445 8.01882C37.7411 7.296 38.1524 6.66353 38.6788 6.12141C39.2053 5.568 39.814 5.13882 40.505 4.83388C41.2069 4.52894 41.9527 4.37647 42.7424 4.37647H50.2936V16.2353Z" fill="#26364A" style="fill:#26364A;fill:color(display-p3 0.1490 0.2118 0.2902);fill-opacity:1;"/>
<path d="M64.3575 6.07059L53.7791 14.5412H64.3575V16.2353H51.0482V14.5412L61.6923 6.07059H51.0482V4.37647H64.3575V6.07059Z" fill="#26364A" style="fill:#26364A;fill:color(display-p3 0.1490 0.2118 0.2902);fill-opacity:1;"/>
<path d="M78.384 16.2353H76.1631L72.7083 12.8471H67.6576V11.1699H74.2712C74.7318 11.1699 75.1486 11.0569 75.5215 10.8311C75.8944 10.5939 76.1905 10.2833 76.4099 9.89929C76.6292 9.504 76.7389 9.07482 76.7389 8.61176C76.7389 8.13741 76.6292 7.70824 76.4099 7.32423C76.1905 6.94024 75.8944 6.63529 75.5215 6.40941C75.1486 6.18353 74.7318 6.07059 74.2712 6.07059H66.7364V16.2353H65.0912V4.37647H74.2712C75.0279 4.37647 75.7189 4.56847 76.344 4.95247C76.9692 5.32518 77.4627 5.83341 77.8247 6.47718C78.1976 7.12094 78.384 7.83247 78.384 8.61176C78.384 9.312 78.2305 9.96141 77.9234 10.56C77.6273 11.1586 77.216 11.6555 76.6895 12.0508C76.174 12.4348 75.5873 12.6833 74.9292 12.7962L78.384 16.2353Z" fill="#26364A" style="fill:#26364A;fill:color(display-p3 0.1490 0.2118 0.2902);fill-opacity:1;"/>
<path d="M92.2616 16.2353H90.6165V12.8471H81.4201V11.1529H90.6165V6.07059H84.7104C83.9646 6.07059 83.2791 6.26259 82.654 6.64659C82.0288 7.01929 81.5298 7.52753 81.1569 8.17129C80.7949 8.81506 80.614 9.52659 80.614 10.3059V16.2353H78.9688V10.3059C78.9688 9.49271 79.1169 8.73035 79.413 8.01882C79.7092 7.296 80.1204 6.66353 80.6469 6.12141C81.1733 5.568 81.782 5.13882 82.473 4.83388C83.1749 4.52894 83.9207 4.37647 84.7104 4.37647H92.2616V16.2353Z" fill="#26364A" style="fill:#26364A;fill:color(display-p3 0.1490 0.2118 0.2902);fill-opacity:1;"/>
<path d="M107 16.2353H104.779L101.324 12.8471H96.2736V11.1699H102.887C103.348 11.1699 103.765 11.0569 104.137 10.8311C104.51 10.5939 104.806 10.2833 105.026 9.89929C105.245 9.504 105.355 9.07482 105.355 8.61176C105.355 8.13741 105.245 7.70824 105.026 7.32423C104.806 6.94024 104.51 6.63529 104.137 6.40941C103.765 6.18353 103.348 6.07059 102.887 6.07059H95.3523V16.2353H93.7072V4.37647H102.887C103.644 4.37647 104.335 4.56847 104.96 4.95247C105.585 5.32518 106.079 5.83341 106.441 6.47718C106.814 7.12094 107 7.83247 107 8.61176C107 9.312 106.846 9.96141 106.539 10.56C106.243 11.1586 105.832 11.6555 105.305 12.0508C104.79 12.4348 104.203 12.6833 103.545 12.7962L107 16.2353Z" fill="#26364A" style="fill:#26364A;fill:color(display-p3 0.1490 0.2118 0.2902);fill-opacity:1;"/>
<path d="M41.3618 24H37.0776V28.2353H36.3921V23.2941H41.3618V24ZM40.7723 26.1176H37.4203V25.4118H40.7723V26.1176Z" fill="#26364A" style="fill:#26364A;fill:color(display-p3 0.1490 0.2118 0.2902);fill-opacity:1;"/>
<path d="M43.9061 28.2353H43.2206V23.2941H43.9061V28.2353Z" fill="#26364A" style="fill:#26364A;fill:color(display-p3 0.1490 0.2118 0.2902);fill-opacity:1;"/>
<path d="M51.7588 28.2353H50.8334L49.3939 26.8235H47.2895V26.1247H50.0451C50.2371 26.1247 50.4107 26.0776 50.5661 25.9835C50.7215 25.8847 50.8448 25.7553 50.9362 25.5953C51.0276 25.4306 51.0733 25.2518 51.0733 25.0588C51.0733 24.8612 51.0276 24.6824 50.9362 24.5224C50.8448 24.3624 50.7215 24.2353 50.5661 24.1412C50.4107 24.0471 50.2371 24 50.0451 24H46.9056V28.2353H46.2201V23.2941H50.0451C50.3604 23.2941 50.6483 23.3741 50.9088 23.5341C51.1693 23.6894 51.375 23.9012 51.5258 24.1694C51.6811 24.4376 51.7588 24.7341 51.7588 25.0588C51.7588 25.3506 51.6948 25.6212 51.5669 25.8706C51.4435 26.12 51.2721 26.3271 51.0528 26.4918C50.838 26.6518 50.5935 26.7553 50.3193 26.8024L51.7588 28.2353Z" fill="#26364A" style="fill:#26364A;fill:color(display-p3 0.1490 0.2118 0.2902);fill-opacity:1;"/>
<path d="M58.7613 28.2353H53.7984V23.2941H58.7613V24H54.4839V27.5294H58.7613V28.2353ZM58.1787 26.1176H54.8267V25.4118H58.1787V26.1176Z" fill="#26364A" style="fill:#26364A;fill:color(display-p3 0.1490 0.2118 0.2902);fill-opacity:1;"/>
<path d="M69.8089 26.8235C69.8089 27.0824 69.7472 27.32 69.6238 27.5365C69.5004 27.7482 69.3359 27.9176 69.1303 28.0447C68.9246 28.1718 68.6938 28.2353 68.4379 28.2353H64.2702V27.5294H68.4379C68.6299 27.5294 68.7921 27.4612 68.9246 27.3247C69.0571 27.1835 69.1234 27.0165 69.1234 26.8235C69.1234 26.6306 69.0571 26.4659 68.9246 26.3294C68.7921 26.1882 68.6299 26.1176 68.4379 26.1176H65.6412C65.3898 26.1176 65.159 26.0541 64.9488 25.9271C64.7432 25.8 64.5787 25.6306 64.4553 25.4188C64.3319 25.2024 64.2702 24.9647 64.2702 24.7059C64.2702 24.4471 64.3319 24.2118 64.4553 24C64.5787 23.7835 64.7432 23.6118 64.9488 23.4847C65.159 23.3576 65.3898 23.2941 65.6412 23.2941H69.4661V24H65.6412C65.4538 24 65.2916 24.0706 65.1545 24.2118C65.0219 24.3482 64.9557 24.5129 64.9557 24.7059C64.9557 24.8988 65.0219 25.0659 65.1545 25.2071C65.2916 25.3435 65.4538 25.4118 65.6412 25.4118H68.4379C68.6938 25.4118 68.9246 25.4753 69.1303 25.6024C69.3359 25.7294 69.5004 25.9012 69.6238 26.1176C69.7472 26.3294 69.8089 26.5647 69.8089 26.8235Z" fill="#26364A" style="fill:#26364A;fill:color(display-p3 0.1490 0.2118 0.2902);fill-opacity:1;"/>
<path d="M77.1342 26.8235C77.1342 27.0824 77.0566 27.32 76.9012 27.5365C76.7504 27.7482 76.5447 27.9176 76.2842 28.0447C76.0238 28.1718 75.7359 28.2353 75.4205 28.2353H71.5887V27.5294H75.4205C75.6079 27.5294 75.7793 27.4988 75.9347 27.4376C76.09 27.3718 76.2134 27.2847 76.3048 27.1765C76.4008 27.0682 76.4488 26.9506 76.4488 26.8235V26.4706H73.3024C72.9871 26.4706 72.6992 26.3906 72.4387 26.2306C72.1828 26.0706 71.9771 25.8588 71.8218 25.5953C71.6664 25.3271 71.5887 25.0306 71.5887 24.7059V23.2941H72.2742V24.7059C72.2742 24.8988 72.3199 25.0776 72.4113 25.2424C72.5027 25.4024 72.6261 25.5294 72.7814 25.6235C72.9414 25.7176 73.1151 25.7647 73.3024 25.7647H76.4488V23.2941H77.1342V26.8235Z" fill="#26364A" style="fill:#26364A;fill:color(display-p3 0.1490 0.2118 0.2902);fill-opacity:1;"/>
<path d="M84.7111 26.8235C84.7111 27.0824 84.6494 27.32 84.526 27.5365C84.4026 27.7482 84.2381 27.9176 84.0325 28.0447C83.8268 28.1718 83.596 28.2353 83.3401 28.2353H79.1724V27.5294H83.3401C83.5321 27.5294 83.6943 27.4612 83.8268 27.3247C83.9593 27.1835 84.0256 27.0165 84.0256 26.8235C84.0256 26.6306 83.9593 26.4659 83.8268 26.3294C83.6943 26.1882 83.5321 26.1176 83.3401 26.1176H80.5434C80.292 26.1176 80.0613 26.0541 79.851 25.9271C79.6454 25.8 79.4809 25.6306 79.3575 25.4188C79.2341 25.2024 79.1724 24.9647 79.1724 24.7059C79.1724 24.4471 79.2341 24.2118 79.3575 24C79.4809 23.7835 79.6454 23.6118 79.851 23.4847C80.0613 23.3576 80.292 23.2941 80.5434 23.2941H84.3683V24H80.5434C80.356 24 80.1938 24.0706 80.0567 24.2118C79.9242 24.3482 79.8579 24.5129 79.8579 24.7059C79.8579 24.8988 79.9242 25.0659 80.0567 25.2071C80.1938 25.3435 80.356 25.4118 80.5434 25.4118H83.3401C83.596 25.4118 83.8268 25.4753 84.0325 25.6024C84.2381 25.7294 84.4026 25.9012 84.526 26.1176C84.6494 26.3294 84.7111 26.5647 84.7111 26.8235Z" fill="#26364A" style="fill:#26364A;fill:color(display-p3 0.1490 0.2118 0.2902);fill-opacity:1;"/>
<path d="M89.2808 28.2353H88.5953V24H86.1687V23.2941H91.7074V24H89.2808V28.2353Z" fill="#26364A" style="fill:#26364A;fill:color(display-p3 0.1490 0.2118 0.2902);fill-opacity:1;"/>
<path d="M98.4808 28.2353H93.5179V23.2941H98.4808V24H94.2034V27.5294H98.4808V28.2353ZM97.8982 26.1176H94.5462V25.4118H97.8982V26.1176Z" fill="#26364A" style="fill:#26364A;fill:color(display-p3 0.1490 0.2118 0.2902);fill-opacity:1;"/>
<path d="M103.949 28.2353H103.263V25.7647C103.263 25.44 103.185 25.1435 103.03 24.8753C102.879 24.6071 102.674 24.3953 102.413 24.24C102.153 24.08 101.865 24 101.549 24H101.179V28.2353H100.494V23.2941H101.549C101.984 23.2941 102.381 23.4047 102.742 23.6259C103.108 23.8471 103.396 24.1365 103.606 24.4941C103.816 24.1365 104.102 23.8471 104.463 23.6259C104.828 23.4047 105.228 23.2941 105.662 23.2941H106.718V28.2353H106.032V24H105.662C105.347 24 105.059 24.08 104.799 24.24C104.543 24.3953 104.337 24.6071 104.182 24.8753C104.026 25.1435 103.949 25.44 103.949 25.7647V28.2353Z" fill="#26364A" style="fill:#26364A;fill:color(display-p3 0.1490 0.2118 0.2902);fill-opacity:1;"/>
</svg>
